<mxfile host="app.diagrams.net" modified="2022-12-19T08:24:28.903Z" agent="5.0 (X11; Ubuntu)" etag="jZGE87UbBTiZLlNfOcSN" version="20.7.4" type="github" pages="2">
  <diagram id="pfh60kXEi3NOM66sNuTY" name="Page-1">
    <mxGraphModel dx="1234" dy="1109" grid="1" gridSize="10" guides="1" tooltips="1" connect="1" arrows="1" fold="1" page="1" pageScale="1" pageWidth="850" pageHeight="1100" math="0" shadow="0">
      <root>
        <mxCell id="0" />
        <mxCell id="1" parent="0" />
        <mxCell id="nRlDMb4SqcX4eW5oRpA9-1" value="&lt;h1 align=&quot;center&quot;&gt;Code lab 2&lt;br&gt;&lt;/h1&gt;&lt;h1 align=&quot;center&quot;&gt;&amp;nbsp;ToDo App&lt;br&gt;&lt;/h1&gt;" style="text;html=1;strokeColor=none;fillColor=none;spacing=5;spacingTop=-20;whiteSpace=wrap;overflow=hidden;rounded=0;align=center;" vertex="1" parent="1">
          <mxGeometry x="300" y="180" width="210" height="90" as="geometry" />
        </mxCell>
        <mxCell id="nRlDMb4SqcX4eW5oRpA9-2" value="&lt;b&gt;&lt;font style=&quot;font-size: 14px;&quot;&gt;Objectif #1 : Créer un projet VueJs &quot;from scratch&quot;&lt;br&gt;&lt;/font&gt;&lt;/b&gt;" style="rounded=0;whiteSpace=wrap;html=1;fillColor=#dae8fc;strokeColor=#6c8ebf;shadow=1;" vertex="1" parent="1">
          <mxGeometry x="190" y="310" width="480" height="60" as="geometry" />
        </mxCell>
        <mxCell id="nRlDMb4SqcX4eW5oRpA9-3" value="&lt;div&gt;&lt;b&gt;&lt;font style=&quot;font-size: 14px;&quot;&gt;Objectif #2 : Utiliser un framework UI très connu: Vuetify&lt;br&gt;&lt;/font&gt;&lt;/b&gt;&lt;/div&gt;" style="rounded=0;whiteSpace=wrap;html=1;fillColor=#dae8fc;strokeColor=#6c8ebf;shadow=1;" vertex="1" parent="1">
          <mxGeometry x="190" y="390" width="480" height="60" as="geometry" />
        </mxCell>
      </root>
    </mxGraphModel>
  </diagram>
  <diagram id="56YtSKPm9WsGssvjvdIP" name="Page-2">
    <mxGraphModel dx="851" dy="765" grid="1" gridSize="10" guides="1" tooltips="1" connect="1" arrows="1" fold="1" page="1" pageScale="1" pageWidth="850" pageHeight="1100" math="0" shadow="0">
      <root>
        <mxCell id="0" />
        <mxCell id="1" parent="0" />
        <mxCell id="FJtQRWKZDMc56x1q1C4I-1" value="&lt;h2&gt;Setup du backend&lt;/h2&gt;" style="rounded=0;whiteSpace=wrap;html=1;fillColor=#fff2cc;strokeColor=#d6b656;" vertex="1" parent="1">
          <mxGeometry x="315" y="160" width="220" height="60" as="geometry" />
        </mxCell>
        <mxCell id="FJtQRWKZDMc56x1q1C4I-2" value="&lt;h3&gt;Installer POSTGRESQL&lt;/h3&gt;" style="rounded=1;whiteSpace=wrap;html=1;fillColor=#d5e8d4;strokeColor=#82b366;" vertex="1" parent="1">
          <mxGeometry x="100" y="280" width="660" height="50" as="geometry" />
        </mxCell>
        <mxCell id="FJtQRWKZDMc56x1q1C4I-3" value="&lt;ul&gt;&lt;li&gt;Pour Ubuntu : https://www.postgresqltutorial.com/postgresql-getting-started/install-postgresql-linux/ &lt;b&gt;(suivre le tutoriel jusqu&#39;à la commande `psql`)&lt;/b&gt;&lt;br&gt;&lt;/li&gt;&lt;/ul&gt;" style="rounded=0;whiteSpace=wrap;html=1;align=left;" vertex="1" parent="1">
          <mxGeometry x="100" y="349" width="660" height="70" as="geometry" />
        </mxCell>
        <mxCell id="FJtQRWKZDMc56x1q1C4I-6" value="&lt;h3&gt;Configuration du backend&lt;/h3&gt;" style="rounded=1;whiteSpace=wrap;html=1;fillColor=#d5e8d4;strokeColor=#82b366;" vertex="1" parent="1">
          <mxGeometry x="100" y="450" width="660" height="50" as="geometry" />
        </mxCell>
        <mxCell id="FJtQRWKZDMc56x1q1C4I-7" value="&lt;ul&gt;&lt;li&gt;Aller sur &lt;a href=&quot;https://github.com/tonycheang/todo-backend-express-knex&quot;&gt;https://github.com/tonycheang/todo-backend-express-knex&lt;/a&gt;&lt;/li&gt;&lt;li&gt;Cloner le projet&lt;/li&gt;&lt;li&gt;Renommer le projet en &quot;todo_app&quot;&lt;/li&gt;&lt;li&gt;Supprimer le dossier &quot;client&quot;&lt;/li&gt;&lt;li&gt;Dans package.json ==&amp;gt; modifier la version de knex en 1.0.7&lt;br&gt;&lt;/li&gt;&lt;li&gt;Suivre les instructions de la partie &quot;Installation&quot;&lt;/li&gt;&lt;/ul&gt;" style="rounded=0;whiteSpace=wrap;html=1;align=left;" vertex="1" parent="1">
          <mxGeometry x="99" y="519" width="660" height="131" as="geometry" />
        </mxCell>
      </root>
    </mxGraphModel>
  </diagram>
</mxfile>
